<?xml version="1.0" encoding="utf-8"?>
<!-- Generator: Adobe Illustrator 24.3.0, SVG Export Plug-In . SVG Version: 6.00 Build 0)  -->
<svg version="1.1" id="Calque_1" xmlns="http://www.w3.org/2000/svg" xmlns:xlink="http://www.w3.org/1999/xlink" x="0px" y="0px"
	 viewBox="0 0 365.1 273.9" style="enable-background:new 0 0 365.1 273.9;" xml:space="preserve">
<style type="text/css">
	.st0{fill:#FFFFFF;}
	.st1{fill-rule:evenodd;clip-rule:evenodd;fill:#FFFFFF;}
	.st2{fill-rule:evenodd;clip-rule:evenodd;fill:#F05145;}
	.st3{fill-rule:evenodd;clip-rule:evenodd;}
</style>
<g id="レイヤー_1">
</g>
<g id="レイヤー_4">
	<g>
		<g>
			<g>
				<g>
					<path class="st0" d="M96.4,191c-2.9,0-5.6-0.4-8.2-1.2c-6.2-1.9-13.8-6.8-14.4-14.2c-0.3-4,2-8.3,5.5-10.2c1.2-0.7,2.7-1,4.3-1
						c1.4,0,2.7,0.3,3.6,0.6c-0.2-0.8-0.3-1.5-0.5-2.3c-0.7-3.2-1.4-6.5-1.6-9.8c0-0.3,0.2-0.6,0.5-0.6c0.2,0,0.3,0,0.5,0
						c1,0,2,0.2,2.8,0.5l-1.8-2.5c-0.1-0.2-0.1-0.5,0-0.7c0-0.1,4.1-6.1,4.9-9.2c-1.9-3.5-4.8-9.5-4.8-9.5
						c-9.8-21-7.2-49.7,5.9-66.9c12.8-17.5,32.2-27.6,53.3-27.6c6.4,0,12.8,0.9,19.1,2.8c3.2,0.9,6.4,2,10.2,3.6
						c9.9-7.6,20.5-9.3,27.6-9.3c7.1,0,14.1,1.6,19.8,4.6c0.1,0,0.1,0.1,0.2,0.1l4.5,4.9c0,0,0.1,0.1,0.1,0.1c2,3.6,4,8.1,4.1,15
						c7.5-0.3,14.8-1.3,19.7-2c0,0,0,0,0.1,0c0.4,0,0.8,0,1.2,0c13.2,0,24.6,6.6,30.6,17.7c7.2,13.7,8.8,29.6,4.6,46.1
						c-3.7,14.5-11.8,29-22.8,40.9c-20.5,20.2-46.7,30.1-80.1,30.1c-17.3-0.5-35.4-5.7-55.5-16C119.8,185,107.3,191,96.4,191z"/>
					<path class="st0" d="M203.4,34.1c7.2,0,14.1,1.7,19.6,4.5l4.5,4.9c1.8,3.4,4,8,4,15.3c-0.1,0.2-0.2,0.4-0.3,0.5
						c0.1,0,0.2,0,0.3,0c0-0.2,0-0.3,0-0.5c6.9-0.2,13.8-1.1,20.4-2c0.4,0,0.8,0,1.2,0c12.5,0,24,6,30.1,17.4
						c15.4,29.3,2.7,63.8-18.2,86.4c-21.9,21.5-49,29.9-79.7,29.9c-19.8-0.5-38.4-7.2-55.7-16.1c-8.8,9-21.3,16.2-33.3,16.2
						c-2.7,0-5.4-0.4-8.1-1.2c-6.1-1.9-13.4-6.6-14-13.7c-0.3-3.7,1.8-7.8,5.2-9.7c1.2-0.7,2.6-0.9,4-0.9c1.6,0,3.1,0.3,4.4,0.9
						c-0.8-4.2-2.1-8.6-2.3-13c0.1,0,0.3,0,0.4,0c2.4,0,4.4,1.2,4.4,1.2l-3-4.2c0,0,4.4-6.4,5-9.6c-1.9-3.5-4.9-9.7-4.9-9.7
						c-9.3-20-7.6-48.7,5.9-66.3C106.4,46.7,125.8,37,146.4,37c6.3,0,12.6,0.9,19,2.8c3.6,1,7.1,2.3,10.5,3.7c0,0,0,0,0,0
						c0,0,0,0,0,0c0,0,0,0,0,0C184.3,36.8,194.1,34.1,203.4,34.1 M203.4,32.9v1.1V32.9c-7.2,0-17.7,1.6-27.7,9.2
						c-3.7-1.5-6.9-2.6-10-3.5c-6.3-1.9-12.8-2.8-19.3-2.8c-21.2,0-40.8,10.1-53.8,27.8c-13.3,17.3-15.8,46.3-6,67.4
						c0.1,0.3,2.8,5.8,4.7,9.4c-0.7,2.5-3.7,7.1-4.8,8.8c-0.3,0.4-0.3,0.9,0,1.3l0.9,1.3c-0.5-0.1-0.9-0.1-1.4-0.1
						c-0.2,0-0.3,0-0.5,0c-0.6,0-1.1,0.6-1.1,1.2c0.2,3.4,0.9,6.7,1.6,9.9c0.1,0.5,0.2,0.9,0.3,1.4c-1-0.2-1.9-0.3-2.9-0.3
						c-1.7,0-3.2,0.4-4.5,1.1c-3.7,2-6.1,6.5-5.8,10.8c0.7,7.7,8.4,12.7,14.8,14.7c2.7,0.8,5.5,1.2,8.4,1.2c11,0,23.5-5.9,33.5-15.9
						c20,10.2,38.2,15.4,55.4,15.9c0,0,0,0,0,0c33.5,0,59.8-9.9,80.5-30.2c0,0,0,0,0,0c11.1-12,19.2-26.6,23-41.2
						c4.2-16.6,2.6-32.7-4.6-46.5c-6.1-11.3-17.8-18-31.1-18c-0.4,0-0.8,0-1.3,0c0,0-0.1,0-0.1,0c-4.8,0.7-11.8,1.7-19.1,2
						c-0.2-6.6-2.2-11.1-4.1-14.7c0-0.1-0.1-0.2-0.2-0.2l-4.5-4.9c-0.1-0.1-0.2-0.2-0.3-0.2C217.7,34.6,210.6,32.9,203.4,32.9
						L203.4,32.9z"/>
				</g>
			</g>
			<path class="st1" d="M163.4,84c-20.6,6.1-36.5,22.6-39,42.1c-1.7,11.6,1.1,23.5,7.7,32.9c3.8,5.3,12.1,13.7,12.9,12.5
				c0.5-1.2-5-4-9.6-13.8c-2.7-5.7-6.5-17.4,1.3-29.3c-5.5-1-7.4,0.7-8.3-1.4c0-2.6,8-0.4,10.6-1.1c0,0,2.2-2,5.3-3.9
				c0.4-0.3-8.9-3-11-3.8c-2.2-1-0.5-2.5,0.4-2.3l13.9,4.6l4.3-1.1c10-1.7,19,1.7,27.5,5.1c0.3-1.4,1.5-2.2,2.4-3.2
				c5.1-2.8,9.2-1.7,12.5,0.2c1.6,0.9,3.3,3,3.5,5.8c13.5-3,25.2-0.1,31.1,3.7c6.1-0.3,6.1-0.2,11.3-0.8c1.2,0.3,1.9,1.2,0.1,2.4
				l-8.6,0.6c1.8,1.6,3.9,4,4.8,6.3c2.1,0.9,4.5,0.8,5.7,1.4c1,0.5,1.2,1.9-0.1,2.2c-1.9,0.1-2.6-0.9-4.6-0.9
				c0.1,2.6,1.1,2.6,0.8,7.5c-0.8,14.2-12.9,25.2-22.3,30c-6.8,4.2,11.9-0.4,23.2-17.1c6.6-9.8,10.7-25.8,4.2-44.3
				C231.5,84.2,189.9,76.1,163.4,84z M178.7,114.8c-2.8,2.8-7.6,4.3-11.4,2.4c-3.9-2-5.8-5-6-9.2c-0.1-2.7,0.9-5,2.9-7
				c1.8-1.9,4-3,6.4-3.2c3.7-0.3,8.4,2.3,9.8,5.8C182.4,108.6,181.2,112,178.7,114.8z M183.7,91.3c-0.3,1.1-0.7,1.4-1.6,1.5
				c-1.1,0.2-2.8-4.1-6.4-3.6c-5.4,0.4-3.9,3.9-6.5,2c-2-2.1,4.9-6.4,9.7-4.5C182.1,87.9,183.4,90.3,183.7,91.3
				C183.8,91.2,183.8,91.2,183.7,91.3c0,0.1,0.1,0.2,0.1,0.2C183.8,91.4,183.8,91.4,183.7,91.3z M207.7,92.2
				c3.7-1.5,7.4,0.8,8.7,2.6c1.2,1.2,2.7,3,1.1,4.1c-2.8,1-1.9-3.1-6-4.3c-5.8-0.4-5.1,4.3-7.4,2C203,95.3,205.3,93.2,207.7,92.2z
				 M219,118.1c-2.1,3.7-6.1,5.9-10.3,5.4c-4-0.5-5.6-2.4-7.4-5.2c-1.8-3.2-1.7-7.3,0.4-10.4c2.7-3.8,6.7-5,10.8-4.2
				c2.7,0.5,5.1,2.7,6.4,5.1C220.3,111.4,220.4,115.5,219,118.1z"/>
			<path class="st2" d="M251.8,56.8c-14.2,2.1-30.3,3.7-44.1-0.5c-15-3.3-27.6-12.5-42.3-16.5c-27.1-7.9-55,1.6-71.8,24.6
				c-13.5,17.6-15.2,46.3-5.9,66.3c0,0,3,6.2,4.9,9.7c-0.7,3.1-5,9.6-5,9.6l3,4.2c0,0-2.3-1.4-4.9-1.2c0.2,4.4,1.5,8.8,2.3,13
				c-2.5-1-5.8-1.3-8.4,0.1c-3.4,1.8-5.5,6-5.2,9.7c0.6,7.1,7.9,11.8,14,13.7c14.2,4.4,30.5-3.9,41.4-15
				c17.2,8.9,35.9,15.6,55.7,16.1c30.6,0,57.8-8.4,79.7-29.9c20.9-22.6,33.5-57.1,18.2-86.4C276.8,62.4,264.8,56.4,251.8,56.8z
				 M261.8,84.2c-8.2,4.9-17.7,9.1-26.5,13.6l-9.4-7.7C240.9,85.8,255.2,83,261.8,84.2z M131.7,72.4c3.6,1.3,19.1,8.8,23.1,11
				c-6,2.6-8.9,5.9-10.5,5.7l-18.7-17.3C124.8,71.1,128.4,71.2,131.7,72.4z M124.8,75.8c5.6,4.5,11.7,10.6,16.8,15.5
				c-9.3,7.4-13.5,14.6-17.8,24.4c-1.6-0.7-2.3-2-3.3-3.9C116.9,106.2,118.3,89.9,124.8,75.8z M89.6,185.6c-4.4-1.1-7.9-2.7-10.3-7
				c-2.3-4.2-0.9-6,0.1-7.6c1.7-1.9,4.2-2.5,6.5-1.9c4.4,1.3,4.5,5.1,4.5,5.1l3.7-1.2c0,0-3.1-6.4-3.8-15.1c3.5,1.6,5.7,1.2,9.6,4.7
				c0.9-1.1,1.8-2.1,2.1-3.3c-3.4-2.7-6.5-5.8-9.6-8.9c-0.2-1.5,1.7-4.5,2.6-6.4c10.1,13.4,14.5,16.6,30.7,28.3
				C120.4,180.3,102.7,188.7,89.6,185.6z M167,180.2c-14.3-4.1-26-14.9-30.1-26.8c-0.9-2.6-5-15.6,3.9-25c9.1,0.3,18.2,0.5,27.3,1
				c0.8-0.5,1.8-0.7,0.3-2.2c-4.9-1.4-10.8-3-14.2-4.8c12-1.4,25.9,4.7,34.2,12c9.9-6.3,25.2-6.1,33.8-3
				c-10.1,2.2-17.9-0.5-14.6,3.4c4.8,1.2,17.1,3.9,26.3,6.4c3.4,7.4,2.7,20.1-13.3,32.5C211.3,180.7,189.9,186.8,167,180.2z
				 M143.7,126c0.6-0.9,2.4-2,5.2-2.7c4.1,0.8,6.3,2.1,10.1,3.3C154.7,126.7,149.5,126.5,143.7,126z M227.2,133.4
				c1.2,0.3,4,2.3,5,4.9l-16.4-4.1C219,134.2,223.9,133.3,227.2,133.4z M239.4,162.6c-11.3,16.7-30.1,21.3-23.2,17.1
				c9.4-4.8,21.5-15.8,22.3-30c0.3-4.9-0.7-5-0.8-7.5c2,0,2.7,1.1,4.6,0.9c1.4-0.3,1.1-1.7,0.1-2.2c-1.2-0.7-3.7-0.5-5.7-1.4
				c-0.9-2.4-3-4.7-4.8-6.3l8.6-0.6c1.8-1.2,1.1-2.1-0.1-2.4c-5.1,0.6-5.2,0.5-11.3,0.8c-5.9-3.8-17.6-6.7-31.1-3.7
				c-0.2-2.9-1.9-5-3.5-5.8c-3.4-1.9-7.4-3-12.5-0.2c-0.9,1.1-2.1,1.9-2.4,3.2c-8.5-3.5-17.5-6.8-27.5-5.1l-4.3,1.1l-13.9-4.6
				c-0.9-0.3-2.5,1.3-0.4,2.3c2.1,0.8,11.4,3.5,11,3.8c-3.1,1.9-5.3,3.9-5.3,3.9c-2.6,0.7-10.7-1.5-10.6,1.1
				c0.9,2.1,2.8,0.4,8.3,1.4c-7.8,12-4,23.6-1.3,29.3c4.6,9.9,10.1,12.6,9.6,13.8c-0.7,1.2-9.1-7.2-12.9-12.5
				c-6.7-9.3-9.5-21.2-7.7-32.9c2.5-19.4,18.4-36,39-42.1c26.5-7.9,68.1,0.2,80.2,34.3C250.1,136.8,246,152.8,239.4,162.6z
				 M249.1,124.5c-2.1-8.6-5.9-15.6-11.7-24c7.8-4.4,17-8.7,25.4-12.7C264.1,102.1,260.9,117.1,249.1,124.5z"/>
			<path class="st2" d="M231.2,54.8c-0.4-4.2-1.9-7.8-3.8-11.3l-4.5-4.9c-12-6.4-30.4-6.2-41.7,1.2
				C196.2,49.5,212.2,55.6,231.2,54.8z"/>
			<path class="st1" d="M144.3,89.1c1.6,0.1,4.4-3.1,10.5-5.7c-4-2.2-19.4-9.7-23.1-11c-3.3-1.2-6.9-1.3-6.1-0.5L144.3,89.1z"/>
			<path class="st1" d="M123.7,115.8c4.3-9.8,8.6-16.9,17.8-24.4c-5.1-4.9-11.1-11.1-16.8-15.5c-6.5,14-7.8,30.3-4.4,36.1
				C121.4,113.7,122.2,115,123.7,115.8z"/>
			<path class="st1" d="M261.8,84.2c-6.5-1.2-20.9,1.6-35.9,5.9l9.4,7.7C244,93.3,253.6,89.1,261.8,84.2z"/>
			<path class="st2" d="M179,86.7c-4.8-1.9-11.7,2.4-9.7,4.5c2.6,1.9,1.1-1.6,6.5-2c3.5-0.5,5.2,3.7,6.4,3.6
				c0.9-0.1,1.3-0.4,1.6-1.5C183.4,90.3,182.1,87.9,179,86.7z"/>
			<path class="st1" d="M237.3,100.5c5.9,8.4,9.6,15.4,11.7,24c11.8-7.4,15-22.4,13.6-36.6C254.3,91.8,245.2,96.1,237.3,100.5z"/>
			<path class="st2" d="M211.5,94.6c4.1,1.1,3.2,5.3,6,4.3c1.7-1.1,0.1-2.9-1.1-4.1c-1.3-1.8-5.1-4.1-8.7-2.6
				c-2.5,1-4.7,3.1-3.7,4.4C206.4,98.9,205.6,94.2,211.5,94.6z"/>
			<path class="st2" d="M170.6,97.7c-2.4,0.2-4.7,1.3-6.4,3.2c-2,2-3,4.3-2.9,7c0.2,4.3,2.1,7.2,6,9.2c3.8,1.9,8.6,0.4,11.4-2.4
				c2.5-2.8,3.7-6.1,1.6-11.3C179,100,174.3,97.5,170.6,97.7z M177.8,111.2c0.3-3.7-2.2-5.7-3.2-6.1c-2.2-0.9-3.9-0.5-5.3,0.5
				c-1.8,1.7-3.5,4.5-1.2,7.7l1.7,1.4c-1.6,0.5-4.6-1.9-5.2-3.6c-1.1-2.5-0.9-5.8,1-7.8c2.4-3.2,7.5-3.9,11.4-0.4
				C178.8,104.5,179.1,109.4,177.8,111.2z"/>
			<path class="st1" d="M165.6,103.3c-1.9,2.1-2,5.3-1,7.8c0.6,1.8,3.6,4.2,5.2,3.6l-1.7-1.4c-2.3-3.2-0.6-6.1,1.2-7.7
				c1.5-1,3.1-1.4,5.3-0.5c1,0.4,3.5,2.3,3.2,6.1c1.3-1.8,1-6.7-0.9-8.4C173.1,99.4,168,100.1,165.6,103.3z"/>
			<path class="st2" d="M212.5,103.8c-4.1-0.8-8.1,0.3-10.8,4.2c-2.2,3.1-2.2,7.1-0.4,10.4c1.8,2.8,3.4,4.7,7.4,5.2
				c4.1,0.5,8.2-1.7,10.3-5.4c1.5-2.6,1.4-6.7-0.1-9.2C217.6,106.5,215.2,104.3,212.5,103.8z M213.3,120.2c-1.3,0.4-4,1.1-5.3,0.2
				c1.7-0.4,3.9-1.2,4.8-2.8c1.1-1.9,1.1-4.3-0.8-6.4c-1-1.2-3.1-2.1-5.2-1.6c-1.7,0.4-3.2,2.2-3.7,4.1c-0.9-1.6,0.7-5.4,3-6.4
				c3.9-1.7,6.9-1.1,9,0.9c1.9,1.6,2.1,4.1,2.1,6.5C217.2,117.1,215.4,119,213.3,120.2z"/>
			<path class="st1" d="M206.2,107.3c-2.3,1-3.9,4.8-3,6.4c0.4-1.9,1.9-3.7,3.7-4.1c2.1-0.5,4.2,0.3,5.2,1.6
				c1.9,2.1,1.9,4.5,0.8,6.4c-0.9,1.5-3.1,2.4-4.8,2.8c1.3,0.9,4,0.2,5.3-0.2c2.1-1.2,3.9-3.1,4-5.5c0-2.4-0.2-5-2.1-6.5
				C213.1,106.1,210.1,105.5,206.2,107.3z"/>
			<path class="st1" d="M233.8,141.1c-9.2-2.5-21.5-5.2-26.3-6.4c-3.3-3.9,4.6-1.2,14.6-3.4c-8.6-3.1-24-3.3-33.8,3
				c-8.3-7.3-22.3-13.3-34.2-12c3.5,1.8,9.3,3.3,14.2,4.8c1.6,1.5,0.6,1.7-0.3,2.2c-9-0.5-18.2-0.7-27.3-1c-8.9,9.5-4.8,22.4-3.9,25
				c4.1,12,15.7,22.7,30.1,26.8c22.9,6.6,44.3,0.5,53.6-6.6C236.5,161.2,237.2,148.5,233.8,141.1z M177.3,172.5
				c-18.7-5.6-19.4-28.4-27.5-41.7c11,10.7,30.4,1.8,43.3,8.3c10,4.5,23,8,32.5,2.6c-8.9,8.7-16.3,18.3-24.8,27.3
				C194.9,175.1,184.7,174.9,177.3,172.5z"/>
			<path class="st1" d="M148.9,123.3c-2.8,0.7-4.6,1.8-5.2,2.7c5.8,0.5,11,0.7,15.3,0.6C155.1,125.4,153,124.1,148.9,123.3z"/>
			<path class="st2" d="M193,139c-12.9-6.5-32.3,2.4-43.3-8.3c8.1,13.3,8.8,36.1,27.5,41.7c7.4,2.4,17.7,2.6,23.5-3.6
				c8.5-9,15.9-18.6,24.8-27.3C216,147.1,203.1,143.5,193,139z M198.6,166.7c-4.7,4.2-9,4.1-16.3,3.4c-6.7-0.6-11.9-4-14.2-7
				c0.2-2.4,2.3-4.7,4.4-6c5-2.9,13.7-3.7,22.2,0.8C198.5,160.5,200.1,165.5,198.6,166.7z"/>
			<path class="st1" d="M227.2,133.4c-3.3-0.1-8.2,0.8-11.4,0.8l16.4,4.1C231.2,135.7,228.4,133.7,227.2,133.4z"/>
			<path class="st1" d="M95,143.9c-0.9,1.9-2.8,4.9-2.6,6.4c3.1,3.1,6.2,6.2,9.6,8.9c-0.3,1.3-1.1,2.3-2.1,3.3
				c-3.9-3.5-6.1-3.1-9.6-4.7c0.7,8.7,3.8,15.1,3.8,15.1l-3.7,1.2c0,0-0.1-3.8-4.5-5.1c-2.3-0.6-4.8,0-6.5,1.9
				c-1,1.6-2.4,3.4-0.1,7.6c2.3,4.3,5.9,5.9,10.3,7c13.1,3.1,30.8-5.2,36.1-13.4C109.4,160.5,105.1,157.3,95,143.9z"/>
			<path class="st1" d="M194.7,157.9c-8.5-4.5-17.2-3.7-22.2-0.8c-2.1,1.2-4.2,3.5-4.4,6c2.3,2.9,7.5,6.3,14.2,7
				c7.3,0.7,11.6,0.8,16.3-3.4C200.1,165.5,198.5,160.5,194.7,157.9z"/>
		</g>
		<g>
			<g>
				<polygon class="st1" points="329.6,240.3 329.7,211 338.6,210.9 347.3,228.7 347.3,210.8 354.3,210.8 354.3,240.3 345.9,240.4 
					337,223 337,240.4 				"/>
				<path class="st0" d="M347.7,211.2l6.2,0.1l0,28.6l-7.7,0.1l-9.5-18.7v18.7l-6.6-0.1l0.1-28.4l8.2-0.1l9.4,19.1L347.7,211.2
					 M346.8,210.3l0,0.9l0,15.6l-7.8-15.8l-0.2-0.5l-0.5,0l-8.2,0.1l-0.8,0l0,0.8l-0.1,28.4l0,0.8l0.8,0l6.6,0.1l0.9,0v-0.9v-15.1
					l7.9,15.5l0.2,0.5l0.5,0l7.7-0.1l0.8,0l0-0.8l0-28.6l0-0.8l-0.8,0l-6.2-0.1L346.8,210.3L346.8,210.3z"/>
			</g>
			<g>
				<polygon class="st1" points="265,240.8 265.1,216.6 257.9,216.6 257.9,211.2 280.5,211.2 280.4,216.6 273.3,216.6 273.3,240.8 
									"/>
				<path class="st0" d="M280.1,211.6l0,4.6l-7.2,0v24.2l-7.4,0l0-24.2h-7.2v-4.6L280.1,211.6 M280.9,210.7h-0.9h-21.8h-0.9v0.9v4.6
					v0.9h0.9h6.4l0,23.3l0,0.9l0.9,0l7.4,0l0.9,0v-0.9v-23.4l6.3,0l0.8,0l0-0.8l0-4.6L280.9,210.7L280.9,210.7z"/>
			</g>
			<g>
				<polygon class="st1" points="284.2,240.5 284.2,211 292.4,211 292.4,240.6 				"/>
				<path class="st0" d="M292,211.4v28.7l-7.4,0l0.1-28.7H292 M292.8,210.6H292h-7.3h-0.9l0,0.9l-0.1,28.7l0,0.9l0.9,0l7.4,0l0.9,0
					v-0.9v-28.7L292.8,210.6L292.8,210.6z"/>
			</g>
			<g>
				<polygon class="st1" points="145.7,211.3 154.4,211.3 163.4,229.1 163.3,211 170.6,211.1 170.5,241 161.8,241 152.8,223.2 
					152.8,241 145.7,241 				"/>
				<path class="st0" d="M163.8,211.4l6.4,0.1l-0.1,29l-8,0l-9.7-19.2l0,19.1l-6.2,0v-28.9h8l9.7,19.3L163.8,211.4 M162.9,210.6
					l0,0.9l0,15.9l-8.1-16l-0.2-0.5h-0.5h-8h-0.9v0.9v28.9v0.9l0.9,0l6.2,0l0.9,0l0-0.9l0-15.6l8.1,16l0.2,0.5l0.5,0l8,0l0.9,0
					l0-0.9l0.1-29l0-0.8l-0.8,0l-6.4-0.1L162.9,210.6L162.9,210.6z"/>
			</g>
			<g>
				<polygon class="st1" points="177.8,211.3 186,211.3 186,240.3 177.8,240.3 				"/>
				<path class="st0" d="M185.6,211.7v28.2l-7.4,0v-28.2H185.6 M186.4,210.8h-0.9h-7.4h-0.9v0.9v28.2v0.9l0.9,0l7.4,0l0.9,0v-0.9
					v-28.2L186.4,210.8L186.4,210.8z"/>
			</g>
			<g>
				<polygon class="st1" points="219.3,240.7 219.3,220.5 213.1,240.5 207.1,240.5 200.7,220.9 200.7,240.7 193.6,240.7 
					193.6,211.5 205.4,211.5 210.1,229.3 215.3,211.4 226.9,211.3 226.9,240.8 				"/>
				<path class="st0" d="M226.4,211.7l0,28.7l-6.7-0.1l0-22.6l-7,22.4h-5.4l-7.1-21.9v22.1H194l0-28.3l11,0.1l5,19l5.6-19.2
					L226.4,211.7 M227.3,210.9l-0.9,0l-10.8,0.1l-0.6,0l-0.2,0.6l-4.7,16.2l-4.2-16l-0.2-0.6l-0.7,0l-11-0.1l-0.9,0l0,0.9l0,28.3
					l0,0.9h0.9h6.3h0.9v-0.9v-16.7l5.5,16.8l0.2,0.6h0.6h5.4h0.6l0.2-0.6l5.3-17l0,17l0,0.8l0.8,0l6.7,0.1l0.9,0l0-0.9l0-28.7
					L227.3,210.9L227.3,210.9z"/>
			</g>
			<g>
				<polygon class="st1" points="66.6,241 66.5,211.5 84.4,211.5 84.4,217.1 74.2,217.1 74.2,223.1 83.6,223.1 83.7,228.5 
					74.3,228.5 74.3,235.7 85.1,235.6 85.1,241 				"/>
				<path class="st0" d="M84,211.9l-0.1,4.8l-10.2,0v6.9l9.5-0.1l0.1,4.6h-9.4v8l10.8-0.1l0.1,4.6H67l0-28.7L84,211.9 M84.9,211
					l-0.9,0l-17,0l-0.9,0v0.9l0,28.7v0.9H67h17.7h0.9l0-0.9l-0.1-4.6l0-0.9l-0.9,0l-9.9,0.1v-6.3h8.6h0.9l0-0.9l-0.1-4.6l0-0.8
					l-0.8,0l-8.6,0.1v-5.2l9.3,0l0.8,0l0-0.8l0.1-4.8L84.9,211L84.9,211z"/>
			</g>
			<g>
				<polygon class="st1" points="90.6,211.5 99,211.5 98.9,241.2 90.6,241.2 				"/>
				<path class="st0" d="M98.5,211.9l0,28.9l-7.5,0v-28.9H98.5 M99.4,211h-0.9H91h-0.9v0.9v28.9v0.9l0.9,0l7.5,0l0.8,0l0-0.8l0-28.9
					L99.4,211L99.4,211z"/>
			</g>
			<g>
				<polygon class="st1" points="17.2,241.1 17.2,217.4 9.9,217.4 9.9,211.3 32.6,211.3 32.6,217.2 25.3,217.2 25.4,241.1 				"/>
				<path class="st0" d="M32.2,211.7l0,5h-7.2l0,24h-7.3l0-23.7l-7.3,0v-5.3L32.2,211.7 M33,210.8h-0.9H10.3H9.5v0.9v5.3v0.9l0.9,0
					l6.4,0l0,22.8l0,0.9h0.9h7.3h0.9l0-0.9l0-23.1h6.4H33l0-0.9l0-5L33,210.8L33,210.8z"/>
			</g>
			<g>
				<path class="st1" d="M310.6,241c-9.1,0-13-4.4-13.1-14.6c-0.1-10.1,5.1-16,14.3-16.2l0.3,0c3.5,0,6.4,1.1,8.5,3.3
					c3.6,3.7,4,9.5,3.9,12.6c-0.3,10.2-4.7,14.9-13.6,15L310.6,241z M311.2,215c-1.4,0-2.4,0.4-3.2,1.2c-1.4,1.4-2,4.2-2,8.8
					c0.2,9.5,0.3,11.3,4.8,11.5c3.9-0.2,4.6-2.5,5.1-11.3C315.7,218.5,315.4,215,311.2,215z"/>
				<path class="st0" d="M312.1,210.6c9.5,0,12.2,8.1,12,15.4c-0.3,8.4-3.2,14.5-13.2,14.6c-0.1,0-0.2,0-0.2,0
					c-9.7,0-12.6-5.1-12.7-14.2c-0.1-8.6,3.9-15.6,13.9-15.8C311.9,210.6,312,210.6,312.1,210.6 M310.9,236.9
					c4.4-0.3,5-3.1,5.5-11.7c-0.3-6.2-0.4-10.6-5.2-10.6c-4.3,0-5.6,3.7-5.5,10.4C305.9,234.5,306.1,236.7,310.9,236.9 M312.1,209.8
					c-0.1,0-0.2,0-0.3,0c-5,0.1-8.8,1.8-11.4,5.1c-2.2,2.8-3.4,6.8-3.3,11.6c0.1,5.1,1,8.6,3,11.1c2.2,2.7,5.7,4,10.6,4l0.3,0
					c12.2-0.1,13.9-8.8,14.1-15.4c0.1-3.2-0.3-9.1-4-12.9C318.7,210.9,315.7,209.8,312.1,209.8L312.1,209.8z M310.9,236.1
					c-3.9-0.2-4.2-1.4-4.3-11c-0.1-4.5,0.5-7.2,1.8-8.5c0.7-0.7,1.6-1,2.9-1c3.8,0,4.1,3.2,4.3,9.8
					C315,234.2,314.3,235.8,310.9,236.1L310.9,236.1z"/>
			</g>
			<g>
				<path class="st1" d="M47.6,242c-5.2,0-8.6-1.4-10.7-4.2c-1.9-2.5-2.7-6.2-2.6-12c0.1-6.4,1.5-15,13.6-15l0.3,0
					c3.8,0,7.1,1.4,9.3,3.8c2.6,2.8,3.8,7,3.5,12.1c-0.5,7.5-2.4,15.2-13.3,15.2C47.8,242,47.6,242,47.6,242z M47.6,215.8
					c-4.6,0-4.9,4.4-5,11.6c-0.1,3.8,0,6.9,1.5,8.4c0.8,0.8,2,1.2,3.8,1.2c0.2,0,0.3,0,0.5,0c3.5,0,3.7-3,4-8.8c0-1,0.1-2,0.1-3
					c0-7-1.2-9.4-4.8-9.4L47.6,215.8z"/>
				<path class="st0" d="M47.9,211.2c0.1,0,0.2,0,0.3,0c8.2,0.1,13,6,12.4,15.5c-0.4,6.4-1.8,14.8-12.8,14.8c-0.1,0-0.1,0-0.2,0
					c-10.3-0.1-13-5.3-12.9-15.7C34.8,218.8,36.5,211.2,47.9,211.2 M48.4,237.5c4.8,0,4.1-5.3,4.5-12.2c0-6.5-1-9.8-5.2-9.9
					c-0.1,0-0.1,0-0.2,0c-5.1,0-5.3,5.3-5.4,12.1c-0.1,6.4,0.3,10,5.7,10C48.1,237.5,48.3,237.5,48.4,237.5 M47.9,210.4
					c-12.5,0-14,8.8-14,15.4c0,5.9,0.8,9.7,2.7,12.3c2.2,2.9,5.7,4.3,11,4.3l0.2,0c12.7,0,13.4-11,13.7-15.7
					c0.3-5.2-0.9-9.5-3.6-12.5c-2.3-2.5-5.7-3.9-9.6-3.9C48.1,210.4,48,210.4,47.9,210.4L47.9,210.4z M47.9,236.6
					c-1.6,0-2.8-0.4-3.5-1.1c-1.4-1.4-1.4-4.3-1.4-8c0.1-7.6,0.6-11.2,4.5-11.2c0,0,0.1,0,0.1,0c3.3,0.1,4.4,2.3,4.4,9
					c-0.1,1-0.1,2-0.1,3c-0.2,5.6-0.5,8.3-3.5,8.3C48.3,236.6,48.2,236.6,47.9,236.6L47.9,236.6L47.9,236.6L47.9,236.6z"/>
			</g>
			<g>
				<path class="st1" d="M239.7,211.2h10.6l8.2,29.6h-7.9l-2.8-9.4h-6.7l-3.3,9.4l-7.9,0.1L239.7,211.2z M246.6,226.1l-2.2-7.5
					l-2.2,7.5H246.6z"/>
				<path class="st0" d="M250,211.6l7.9,28.7h-7l-2.8-9.4h-7.3l-3.3,9.4l-7,0.1l9.5-28.9L250,211.6 M241.7,226.6h5.5l-2.7-9.5
					L241.7,226.6 M250.7,210.7H250h-9.9h-0.6l-0.2,0.6l-9.5,28.9l-0.4,1.1l1.2,0l7-0.1l0.6,0l0.2-0.6l3.1-8.9h6.1l2.6,8.8l0.2,0.6
					h0.6h7h1.1l-0.3-1.1l-7.9-28.7L250.7,210.7L250.7,210.7z M242.9,225.7l1.6-5.5l1.6,5.5H242.9L242.9,225.7z"/>
			</g>
			<g>
				<path class="st1" d="M123.4,211.5h10.8l8.4,29.6h-8.2l-2.7-9.4h-7.2l-2.9,9.5l-7.7,0L123.4,211.5z M126.1,226.2l4.1,0l-1.8-7.5
					L126.1,226.2z"/>
				<path class="st0" d="M133.9,211.9l8.2,28.7h-7.3l-2.7-9.4h-7.8l-2.9,9.5l-6.8,0l9.2-28.8L133.9,211.9 M125.5,226.6l5.2,0
					l-2.3-9.5L125.5,226.6 M134.5,211h-0.6h-10.1h-0.6l-0.2,0.6l-9.2,28.8l-0.4,1.1l1.2,0l6.8,0l0.6,0l0.2-0.6l2.7-8.9h6.6l2.5,8.8
					l0.2,0.6h0.6h7.3h1.1l-0.3-1.1l-8.2-28.7L134.5,211L134.5,211z M126.7,225.8l1.7-5.5l1.3,5.5L126.7,225.8L126.7,225.8z"/>
			</g>
		</g>
		<g>
			<g>
				<polygon class="st3" points="347.7,230.5 338.3,211.4 330.1,211.4 330,239.9 336.6,239.9 336.6,221.2 346.1,239.9 353.9,239.9 
					353.9,211.3 347.7,211.2 				"/>
			</g>
			<g>
				<polygon class="st3" points="258.3,216.2 265.5,216.2 265.5,240.4 272.8,240.4 272.8,216.2 280,216.2 280.1,211.6 258.3,211.6 
									"/>
			</g>
			<g>
				<polygon class="st3" points="284.6,240.1 292,240.1 292,211.4 284.6,211.4 				"/>
			</g>
			<g>
				<polygon class="st3" points="163.8,231 154.1,211.7 146.1,211.7 146.1,240.6 152.3,240.6 152.4,221.4 162.1,240.6 170.1,240.6 
					170.2,211.5 163.8,211.4 				"/>
			</g>
			<g>
				<polygon class="st3" points="178.2,239.9 185.6,239.9 185.6,211.7 178.2,211.7 				"/>
			</g>
			<g>
				<polygon class="st3" points="215.6,211.8 210,230.9 205.1,212 194,211.9 194,240.2 200.3,240.2 200.3,218.2 207.4,240.1 
					212.8,240.1 219.8,217.6 219.8,240.3 226.5,240.4 226.4,211.7 				"/>
			</g>
			<g>
				<polygon class="st3" points="84.6,236 73.9,236.1 73.9,228.1 83.3,228.1 83.2,223.5 73.8,223.6 73.8,216.6 83.9,216.6 84,211.9 
					67,211.9 67,240.6 84.7,240.6 				"/>
			</g>
			<g>
				<polygon class="st3" points="91,240.8 98.5,240.7 98.5,211.9 91,211.9 				"/>
			</g>
			<g>
				<polygon class="st3" points="17.6,240.7 24.9,240.7 24.9,216.7 32.1,216.7 32.2,211.7 10.3,211.7 10.3,217 17.6,217 				"/>
			</g>
			<g>
				<path class="st3" d="M311.8,210.6c-10,0.2-14,7.2-13.9,15.8c0.1,9.2,3.1,14.3,13,14.2c10-0.1,13-6.2,13.2-14.6
					C324.3,218.7,321.6,210.4,311.8,210.6z M310.9,236.9c-4.8-0.2-5-2.4-5.2-11.9c-0.1-6.8,1.2-10.4,5.5-10.4
					c4.8,0,4.9,4.4,5.2,10.6C315.9,233.8,315.3,236.6,310.9,236.9z"/>
			</g>
			<g>
				<path class="st3" d="M48.2,211.3c-11.6-0.1-13.4,7.5-13.5,14.6c-0.1,10.4,2.6,15.7,12.9,15.7c11.2,0.1,12.6-8.4,13-14.8
					C61.3,217.3,56.4,211.3,48.2,211.3z M47.9,237.4c-5.5,0-5.8-3.6-5.7-10c0.1-6.8,0.3-12.2,5.6-12.1c4.2,0.1,5.2,3.4,5.2,9.9
					C52.5,232.4,53.2,237.8,47.9,237.4z"/>
			</g>
			<g>
				<path class="st3" d="M240.1,211.6l-9.5,28.9l7-0.1l3.3-9.4h7.3l2.8,9.4h7l-7.9-28.7L240.1,211.6L240.1,211.6z M241.7,226.6
					l2.7-9.5l2.7,9.5H241.7z"/>
			</g>
			<g>
				<path class="st3" d="M123.7,211.9l-9.2,28.8l6.8,0l2.9-9.5h7.8l2.7,9.4h7.3l-8.2-28.7L123.7,211.9L123.7,211.9z M125.5,226.6
					l2.9-9.6l2.3,9.5L125.5,226.6z"/>
			</g>
		</g>
	</g>
</g>
</svg>
